<svg width="27" height="27" viewBox="0 0 27 27" fill="none" xmlns="http://www.w3.org/2000/svg">
<path d="M25.0771 18.6342H8.39043L9.22827 16.9473L23.1493 16.9224C23.62 16.9224 24.0235 16.59 24.1076 16.1302L26.0355 5.46328C26.0859 5.18352 26.0102 4.89545 25.8253 4.67663C25.7339 4.56893 25.6199 4.48218 25.4912 4.4224C25.3625 4.36261 25.2221 4.33121 25.0799 4.33039L7.37045 4.27222L7.21914 3.56866C7.12387 3.11994 6.71475 2.79309 6.2496 2.79309H1.92031C1.65797 2.79309 1.40637 2.89611 1.22087 3.07947C1.03537 3.26284 0.931152 3.51155 0.931152 3.77087C0.931152 4.03019 1.03537 4.27889 1.22087 4.46226C1.40637 4.64563 1.65797 4.74864 1.92031 4.74864H5.44819L6.10949 7.85648L7.73753 15.6482L5.64154 19.0303C5.53269 19.1755 5.46713 19.3479 5.45227 19.5281C5.43742 19.7082 5.47386 19.8889 5.55747 20.0496C5.7256 20.3792 6.06466 20.587 6.44015 20.587H8.19988C7.82473 21.0795 7.6221 21.6795 7.62265 22.296C7.62265 23.8638 8.91163 25.1379 10.4976 25.1379C12.0836 25.1379 13.3726 23.8638 13.3726 22.296C13.3726 21.6783 13.1653 21.0772 12.7954 20.587H17.3096C16.9345 21.0795 16.7318 21.6795 16.7324 22.296C16.7324 23.8638 18.0214 25.1379 19.6074 25.1379C21.1934 25.1379 22.4824 23.8638 22.4824 22.296C22.4824 21.6783 22.275 21.0772 21.9051 20.587H25.0799C25.6235 20.587 26.0691 20.1493 26.0691 19.6092C26.0675 19.3501 25.9622 19.1022 25.7764 18.9196C25.5906 18.7369 25.3392 18.6343 25.0771 18.6342ZM10.4976 23.1713C10.0101 23.1713 9.61216 22.778 9.61216 22.296C9.61216 21.814 10.0101 21.4207 10.4976 21.4207C10.9852 21.4207 11.3831 21.814 11.3831 22.296C11.3831 22.5281 11.2898 22.7508 11.1238 22.9149C10.9577 23.0791 10.7325 23.1713 10.4976 23.1713ZM19.6074 23.1713C19.1198 23.1713 18.7219 22.778 18.7219 22.296C18.7219 21.814 19.1198 21.4207 19.6074 21.4207C20.0949 21.4207 20.4928 21.814 20.4928 22.296C20.4928 22.5281 20.3995 22.7508 20.2335 22.9149C20.0674 23.0791 19.8422 23.1713 19.6074 23.1713Z" fill="#3875E3"/>
<path d="M15.75 12.75L15.75 10.5L15.75 8.25" stroke="#E8EFF7" stroke-width="2" stroke-linecap="round" stroke-linejoin="round"/>
<path d="M13.5 10.5L15.75 10.5L18 10.5" stroke="#E8EFF7" stroke-width="2" stroke-linecap="round" stroke-linejoin="round"/>
</svg>
