<svg width="12" height="8" viewBox="0 0 12 8" fill="none" xmlns="http://www.w3.org/2000/svg">
<path d="M11.9999 0.91283C11.9969 0.671151 11.8809 0.440099 11.6767 0.269287H11.6782C11.5732 0.181658 11.4482 0.112663 11.3107 0.0664266C11.1731 0.0201903 11.0258 -0.00233679 10.8777 0.00019152C10.7295 0.00271983 10.5834 0.0302518 10.4482 0.0811415C10.3131 0.132031 10.1915 0.205233 10.0909 0.29637L4.98643 5.74382L1.90878 3.16721C1.80786 3.0765 1.68616 3.00374 1.55095 2.95327C1.41573 2.90281 1.26977 2.87568 1.12176 2.87349C0.973751 2.8713 0.826732 2.89411 0.689475 2.94054C0.552218 2.98698 0.427534 3.0561 0.32286 3.14377C0.218186 3.23145 0.135668 3.33588 0.0802275 3.45085C0.024787 3.56582 -0.00243988 3.68896 0.000171549 3.81293C0.00278298 3.9369 0.0351792 4.05916 0.0954271 4.17242C0.155675 4.28568 0.242541 4.38761 0.350842 4.47214L4.23833 7.72953C4.34312 7.81731 4.46797 7.8865 4.60541 7.93294C4.74285 7.97939 4.89006 8.00214 5.03824 7.99984C5.18642 7.99754 5.33253 7.97024 5.46782 7.91956C5.60311 7.86889 5.72482 7.79588 5.82566 7.70491L11.6929 1.5619C11.8927 1.38755 12.003 1.15451 11.9999 0.91283Z" fill="white"/>
</svg>
