<svg width="32" height="31" viewBox="0 0 32 31" fill="none" xmlns="http://www.w3.org/2000/svg">
<path d="M15.5006 8.78599e-07C18.1898 -0.000904426 20.8329 0.697822 23.1702 2.02752C25.5076 3.35723 27.4588 5.27215 28.8321 7.58415C30.2055 9.89615 30.9537 12.5257 31.0032 15.2143C31.0528 17.903 30.402 20.5583 29.1148 22.9193L30.949 29.3518C31.0135 29.5777 31.0152 29.8169 30.9539 30.0437C30.8927 30.2705 30.7707 30.4762 30.6012 30.6388C30.4316 30.8015 30.221 30.9148 29.9918 30.9666C29.7627 31.0184 29.5238 31.0067 29.3008 30.9328L23.261 28.9204C21.2024 30.11 18.8978 30.81 16.5254 30.9664C14.153 31.1228 11.7764 30.7314 9.57955 29.8223C7.38265 28.9133 5.42432 27.5111 3.85604 25.7241C2.28777 23.9372 1.15159 21.8134 0.535417 19.5171C-0.0807607 17.2208 -0.160424 14.8135 0.302589 12.4815C0.765601 10.1494 1.75888 7.95519 3.20558 6.06846C4.65228 4.18173 6.51362 2.65309 8.64562 1.60081C10.7776 0.548522 13.1231 0.000795536 15.5006 8.78599e-07V8.78599e-07ZM20.6673 12.9167C20.6673 12.5741 20.5312 12.2456 20.289 12.0033C20.0468 11.7611 19.7182 11.625 19.3756 11.625H11.6256C11.2831 11.625 10.9545 11.7611 10.7123 12.0033C10.4701 12.2456 10.334 12.5741 10.334 12.9167C10.334 13.2592 10.4701 13.5878 10.7123 13.83C10.9545 14.0722 11.2831 14.2083 11.6256 14.2083H19.3756C19.7182 14.2083 20.0468 14.0722 20.289 13.83C20.5312 13.5878 20.6673 13.2592 20.6673 12.9167ZM19.3756 16.7917H14.209C13.8664 16.7917 13.5379 16.9278 13.2956 17.17C13.0534 17.4122 12.9173 17.7408 12.9173 18.0833C12.9173 18.4259 13.0534 18.7544 13.2956 18.9967C13.5379 19.2389 13.8664 19.375 14.209 19.375H19.3756C19.7182 19.375 20.0468 19.2389 20.289 18.9967C20.5312 18.7544 20.6673 18.4259 20.6673 18.0833C20.6673 17.7408 20.5312 17.4122 20.289 17.17C20.0468 16.9278 19.7182 16.7917 19.3756 16.7917V16.7917Z" fill="#3875E3"/>
</svg>
