<svg width="17" height="19" viewBox="0 0 17 19" fill="none" xmlns="http://www.w3.org/2000/svg">
<path d="M11.2755 5.12496L5.51271 10.8877C5.34556 11.0491 5.21225 11.2422 5.12053 11.4558C5.02881 11.6693 4.98054 11.8989 4.97852 12.1313C4.9765 12.3636 5.02078 12.5941 5.10877 12.8091C5.19676 13.0242 5.3267 13.2196 5.49102 13.3839C5.65533 13.5482 5.85072 13.6782 6.06579 13.7661C6.28086 13.8541 6.5113 13.8984 6.74366 13.8964C6.97602 13.8944 7.20566 13.8461 7.41916 13.7544C7.63267 13.6627 7.82577 13.5294 7.98721 13.3622L13.5995 7.59946C14.237 6.93935 14.5898 6.05524 14.5818 5.13756C14.5738 4.21987 14.2058 3.34202 13.5568 2.6931C12.9079 2.04417 12.0301 1.67608 11.1124 1.6681C10.1947 1.66013 9.31056 2.01291 8.65046 2.65046L3.03733 8.41234C2.05268 9.39698 1.49951 10.7325 1.49951 12.125C1.49951 13.5175 2.05268 14.8529 3.03733 15.8376C4.02198 16.8222 5.35745 17.3754 6.74996 17.3754C8.14246 17.3754 9.47793 16.8222 10.4626 15.8376L15.9375 10.375" stroke="#3875E3" stroke-width="2" stroke-linecap="round" stroke-linejoin="round"/>
</svg>
