<svg width="17" height="17" viewBox="0 0 17 17" fill="none" xmlns="http://www.w3.org/2000/svg">
<path d="M6.20312 8.17188C6.4642 8.17188 6.71458 8.06816 6.89918 7.88356C7.08379 7.69895 7.1875 7.44857 7.1875 7.1875C7.1875 6.92643 7.08379 6.67605 6.89918 6.49144C6.71458 6.30684 6.4642 6.20312 6.20312 6.20312C5.94205 6.20312 5.69167 6.30684 5.50707 6.49144C5.32246 6.67605 5.21875 6.92643 5.21875 7.1875C5.21875 7.44857 5.32246 7.69895 5.50707 7.88356C5.69167 8.06816 5.94205 8.17188 6.20312 8.17188Z" fill="#3875E3"/>
<path d="M6.05351 10.6879C5.99629 10.6228 5.92673 10.5696 5.84885 10.5316C5.77097 10.4935 5.68632 10.4712 5.59978 10.466C5.51324 10.4608 5.42654 10.4728 5.34467 10.5014C5.2628 10.5299 5.1874 10.5743 5.12281 10.6322C5.05822 10.69 5.00573 10.76 4.96837 10.8383C4.93101 10.9165 4.90952 11.0014 4.90514 11.0879C4.90075 11.1745 4.91357 11.2611 4.94285 11.3427C4.97212 11.4243 5.01728 11.4993 5.0757 11.5633C5.50633 12.0454 6.03404 12.431 6.62419 12.6947C7.21435 12.9585 7.8536 13.0945 8.50001 13.0937C9.14642 13.0945 9.78568 12.9585 10.3758 12.6947C10.966 12.431 11.4937 12.0454 11.9243 11.5633C12.0385 11.4334 12.0968 11.2636 12.0864 11.0909C12.0761 10.9182 11.998 10.7566 11.8691 10.6412C11.7402 10.5258 11.571 10.466 11.3982 10.4747C11.2254 10.4835 11.0631 10.5601 10.9465 10.6879C10.639 11.0326 10.262 11.3082 9.84037 11.4966C9.41869 11.6851 8.96188 11.7821 8.50001 11.7812C7.52876 11.7812 6.65595 11.3599 6.05351 10.6879Z" fill="#3875E3"/>
<path d="M11.7812 7.1875C11.7812 7.44857 11.6775 7.69895 11.4929 7.88356C11.3083 8.06816 11.0579 8.17188 10.7969 8.17188C10.5358 8.17188 10.2854 8.06816 10.1008 7.88356C9.91621 7.69895 9.8125 7.44857 9.8125 7.1875C9.8125 6.92643 9.91621 6.67605 10.1008 6.49144C10.2854 6.30684 10.5358 6.20313 10.7969 6.20312C11.0579 6.20313 11.3083 6.30684 11.4929 6.49144C11.6775 6.67605 11.7812 6.92643 11.7812 7.1875Z" fill="#3875E3"/>
<path d="M16.375 8.5C16.375 7.46584 16.1713 6.44181 15.7756 5.48637C15.3798 4.53093 14.7997 3.6628 14.0685 2.93153C13.3372 2.20027 12.4691 1.6202 11.5136 1.22445C10.5582 0.828693 9.53416 0.625 8.5 0.625C7.46584 0.625 6.44181 0.828693 5.48637 1.22445C4.53093 1.6202 3.6628 2.20027 2.93153 2.93153C2.20027 3.6628 1.6202 4.53093 1.22445 5.48637C0.828693 6.44181 0.625 7.46584 0.625 8.5C0.625 10.5886 1.45469 12.5916 2.93153 14.0685C4.40838 15.5453 6.41142 16.375 8.5 16.375C10.5886 16.375 12.5916 15.5453 14.0685 14.0685C15.5453 12.5916 16.375 10.5886 16.375 8.5ZM1.9375 8.5C1.9375 6.75952 2.6289 5.09032 3.85961 3.85961C5.09032 2.6289 6.75952 1.9375 8.5 1.9375C10.2405 1.9375 11.9097 2.6289 13.1404 3.85961C14.3711 5.09032 15.0625 6.75952 15.0625 8.5C15.0625 10.2405 14.3711 11.9097 13.1404 13.1404C11.9097 14.3711 10.2405 15.0625 8.5 15.0625C6.75952 15.0625 5.09032 14.3711 3.85961 13.1404C2.6289 11.9097 1.9375 10.2405 1.9375 8.5Z" fill="#3875E3"/>
</svg>
