<svg width="17" height="17" viewBox="0 0 17 17" fill="none" xmlns="http://www.w3.org/2000/svg">
<path d="M16.0143 7.91599L1.57678 0.697237C1.46362 0.640647 1.33652 0.617972 1.21077 0.631944C1.08503 0.645916 0.966001 0.695938 0.868027 0.775987C0.774461 0.854404 0.704624 0.957366 0.666367 1.0733C0.62811 1.18923 0.622949 1.31353 0.651464 1.43224L2.39053 7.8438H9.81271V9.1563H2.39053L0.625214 15.5482C0.598456 15.6473 0.595333 15.7513 0.616095 15.8519C0.636857 15.9524 0.680925 16.0467 0.744756 16.1272C0.808587 16.2076 0.890399 16.2719 0.983614 16.315C1.07683 16.358 1.17885 16.3786 1.28146 16.375C1.38419 16.3744 1.48535 16.3497 1.57678 16.3029L16.0143 9.08411C16.1218 9.02904 16.212 8.94537 16.275 8.84232C16.338 8.73927 16.3713 8.62083 16.3713 8.50005C16.3713 8.37927 16.338 8.26083 16.275 8.15778C16.212 8.05473 16.1218 7.97106 16.0143 7.91599Z" fill="white"/>
</svg>
