<svg width="20" height="16" viewBox="0 0 20 16" fill="none" xmlns="http://www.w3.org/2000/svg">
<path d="M2.99995 2H17C17.55 2 18 1.55 18 1C18 0.45 17.55 0 17 0H2.99995C2.44995 0 1.99995 0.45 1.99995 1C1.99995 1.55 2.44995 2 2.99995 2ZM18.16 3.8C18.07 3.34 17.66 3 17.18 3H2.81995C2.33995 3 1.92995 3.34 1.83995 3.8L0.839951 8.8C0.719951 9.42 1.18995 10 1.81995 10H1.99995V15C1.99995 15.55 2.44995 16 2.99995 16H11C11.55 16 12 15.55 12 15V10H16V15C16 15.55 16.45 16 17 16C17.55 16 18 15.55 18 15V10H18.18C18.81 10 19.28 9.42 19.16 8.8L18.16 3.8ZM9.99995 14H3.99995V10H9.99995V14Z" fill="#3875E3"/>
</svg>
